<?xml version="1.0" encoding="utf-8"?>
<!-- Generator: Adobe Illustrator 19.0.0, SVG Export Plug-In . SVG Version: 6.00 Build 0)  -->
<svg version="1.1" id="Layer_1" xmlns="http://www.w3.org/2000/svg" xmlns:xlink="http://www.w3.org/1999/xlink" x="0px" y="0px"
	 viewBox="0 0 1024 1024" style="enable-background:new 0 0 1024 1024;" xml:space="preserve">
<style type="text/css">
	.st0{fill:#FF6161;}
</style>
<g id="XMLID_2_">
	<g id="XMLID_6_">
		<path id="XMLID_9_" class="st0" d="M406.9,718.3h-45.5c-9.4,0-17.1-6.7-17.1-15V482.7c0-8.3,7.6-15,17.1-15h45.5
			c9.4,0,17.1,6.7,17.1,15v220.6C424,711.6,416.3,718.3,406.9,718.3z"/>
	</g>
	<g id="XMLID_1_">
		<path id="XMLID_8_" class="st0" d="M406.9,411.4h-45.5c-9.4,0-17.1-6.7-17.1-15v-120c0-8.3,7.6-15,17.1-15h45.5
			c9.4,0,17.1,6.7,17.1,15v120C424,404.7,416.3,411.4,406.9,411.4z"/>
	</g>
	<g id="XMLID_4_">
		<path id="XMLID_5_" class="st0" d="M704.9,718.3h-45.5c-9.4,0-17.1-6.7-17.1-15v-427c0.1-1.7,0.7-6.6,5-10.6
			c1-0.9,5.5-4.7,12.1-4.4c4,0.2,6.8,1.8,8.4,2.6c16,9.2,29.5,21.8,29.5,21.8c5.7,5.4,8.6,8.7,14.6,15.3c2.5,2.8,5,5.7,7.2,10.1
			c1.6,3.3,2.4,6.2,2.8,8.2c0.1,128,0.1,256,0.2,384C722,711.6,714.3,718.3,704.9,718.3z"/>
	</g>
	<g id="XMLID_3_">
		<path id="XMLID_7_" class="st0" d="M554.9,718.3h-45.5c-9.4,0-17.1-7.7-17.1-17.2V210.3c0.1-2,0.7-7.6,5-12.2
			c1-1.1,5.5-5.4,12.1-5c4,0.2,6.8,2,8.4,3c16,10.6,29.5,25.1,29.5,25.1c5.7,6.2,8.6,10,14.6,17.6c2.5,3.2,5,6.6,7.2,11.6
			c1.6,3.8,2.4,7.1,2.8,9.4c0.1,147.1,0.1,294.2,0.2,441.3C572,710.6,564.4,718.3,554.9,718.3z"/>
	</g>
</g>
</svg>
